<?xml version="1.0" encoding="UTF-8"?>
<svg xmlns="http://www.w3.org/2000/svg" xmlns:xlink="http://www.w3.org/1999/xlink" width="907.5pt" height="160.5pt" viewBox="0 0 907.5 160.5" version="1.1">
<defs>
<clipPath id="clip1">
  <path d="M 739 0 L 907.5 0 L 907.5 160.5 L 739 160.5 Z M 739 0 "/>
</clipPath>
</defs>
<g id="surface1">
<path style=" stroke:none;fill-rule:evenodd;fill:rgb(0%,43.530273%,70.506287%);fill-opacity:1;" d="M 0.0898438 54.34375 L 8.832031 25.335938 L 52.019531 25.335938 C 61.199219 25.335938 68.359375 27.914063 73.5 33.054688 C 78.648438 38.203125 81.21875 45.363281 81.21875 54.535156 C 81.21875 60.386719 79.988281 65.253906 77.539063 69.136719 C 75.089844 73.011719 71.613281 75.539063 67.121094 76.707031 C 73.222656 78.214844 77.765625 81.050781 80.753906 85.226563 C 83.746094 89.394531 85.238281 95.007813 85.238281 102.042969 C 85.238281 111.996094 82.421875 119.507813 76.785156 124.578125 C 71.148438 129.652344 62.855469 132.183594 51.914063 132.183594 L 8.832031 132.183594 L 8.832031 54.34375 Z M 39.28125 50.609375 L 39.28125 65.835938 L 43.539063 65.835938 C 46.175781 65.835938 48.183594 65.179688 49.566406 63.871094 C 50.941406 62.558594 51.632813 60.664063 51.632813 58.1875 C 51.632813 55.710938 50.941406 53.828125 49.566406 52.542969 C 48.183594 51.261719 46.175781 50.609375 43.539063 50.609375 Z M 39.28125 88.816406 L 39.28125 105.761719 L 44.714844 105.761719 C 47.859375 105.761719 50.28125 105.023438 51.96875 103.554688 C 53.65625 102.082031 54.507813 99.992188 54.507813 97.289063 C 54.507813 94.535156 53.65625 92.433594 51.96875 90.988281 C 50.28125 89.542969 47.859375 88.816406 44.714844 88.816406 Z M 39.28125 88.816406 "/>
<path style=" stroke:none;fill-rule:evenodd;fill:rgb(0%,43.530273%,70.506287%);fill-opacity:1;" d="M 96.796875 25.335938 L 129.25 25.335938 L 129.25 103.167969 L 154.425781 103.167969 L 145.730469 132.175781 L 96.796875 132.183594 C 96.796875 132.183594 96.796875 84.582031 96.796875 54.34375 L 88.007813 54.34375 L 96.75 25.335938 Z M 96.796875 25.335938 "/>
<path style=" stroke:none;fill-rule:evenodd;fill:rgb(0%,43.530273%,70.506287%);fill-opacity:1;" d="M 156.214844 54.34375 L 164.957031 25.335938 L 164.945313 25.335938 L 197.113281 25.335938 L 197.113281 83.628906 C 197.113281 90.398438 197.789063 95.066406 199.148438 97.617188 C 200.503906 100.179688 202.832031 101.453125 206.128906 101.453125 C 209.378906 101.453125 211.707031 100.136719 213.109375 97.507813 C 214.507813 94.875 215.210938 90.257813 215.210938 83.628906 L 215.210938 25.335938 L 247.378906 25.335938 L 247.378906 83.332031 C 247.378906 90.921875 246.957031 97.175781 246.121094 102.082031 C 245.28125 106.992188 243.945313 111.105469 242.113281 114.414063 C 238.507813 121.078125 233.613281 126.1875 227.398438 129.734375 C 221.183594 133.28125 214.097656 135.0625 206.128906 135.0625 C 198.117188 135.0625 191.011719 133.28125 184.796875 129.734375 C 178.585938 126.1875 173.6875 121.078125 170.089844 114.414063 C 168.289063 111.15625 166.984375 107.097656 166.167969 102.234375 C 165.347656 97.367188 164.945313 91.070313 164.945313 83.332031 C 164.945313 83.332031 164.945313 64.105469 164.945313 54.34375 Z M 156.214844 54.34375 "/>
<path style=" stroke:none;fill-rule:evenodd;fill:rgb(0%,43.530273%,70.506287%);fill-opacity:1;" d="M 255.394531 54.34375 L 264.136719 25.335938 L 264.066406 25.335938 L 324.222656 25.335938 L 315.625 54.34375 L 295.664063 54.34375 L 295.664063 64.6875 L 321.566406 64.6875 L 313.324219 91.972656 L 295.664063 91.972656 L 295.664063 103.175781 L 324.960938 103.175781 L 316.265625 132.183594 L 264.066406 132.183594 C 264.066406 132.183594 264.066406 84.582031 264.066406 54.34375 Z M 255.394531 54.34375 "/>
<path style=" stroke:none;fill-rule:evenodd;fill:rgb(0%,60.351563%,25.097656%);fill-opacity:1;" d="M 380.976563 25.335938 L 407 25.335938 C 415.324219 25.335938 422.425781 25.886719 428.316406 26.980469 C 434.199219 28.074219 438.992188 29.761719 442.683594 32.050781 C 450.472656 36.917969 456.449219 43.367188 460.609375 51.394531 C 464.777344 59.421875 466.859375 68.570313 466.859375 78.832031 C 466.859375 89.050781 464.785156 98.148438 460.648438 106.128906 C 456.503906 114.109375 450.519531 120.554688 442.6875 125.472656 C 438.871094 127.804688 434.035156 129.511719 428.175781 130.578125 C 422.308594 131.652344 414.453125 132.183594 404.617188 132.183594 L 380.976563 132.183594 L 380.976563 54.34375 L 381.023438 54.34375 L 372.347656 54.34375 L 380.957031 25.382813 Z M 412.859375 99.441406 C 420.234375 99.394531 425.621094 97.707031 429.015625 94.375 C 432.414063 91.042969 434.117188 85.824219 434.117188 78.722656 C 434.117188 71.773438 432.488281 66.59375 429.238281 63.1875 C 425.984375 59.785156 421 58.078125 414.289063 58.078125 L 412.859375 58.078125 Z M 412.859375 99.441406 "/>
<path style=" stroke:none;fill-rule:evenodd;fill:rgb(0%,60.351563%,25.097656%);fill-opacity:1;" d="M 489.660156 54.34375 L 466.359375 132.183594 L 500.988281 132.183594 L 503.75 118.6875 L 528.113281 118.6875 L 531 132.183594 L 565.738281 132.183594 L 534.316406 25.335938 L 489.6875 25.335938 L 480.992188 54.34375 Z M 489.660156 54.34375 "/>
<path style=" stroke:none;fill-rule:evenodd;fill:rgb(100%,100%,100%);fill-opacity:1;" d="M 509.148438 93.410156 L 522.59375 93.410156 L 519.832031 81.28125 C 518.476563 75.152344 517.554688 70.425781 517.066406 67.113281 C 516.578125 63.804688 516.269531 60.6875 516.148438 57.765625 L 515.589844 57.765625 C 515.46875 60.6875 515.160156 63.804688 514.671875 67.113281 C 514.179688 70.425781 513.257813 75.152344 511.914063 81.28125 Z M 509.148438 93.410156 "/>
<path style=" stroke:none;fill-rule:evenodd;fill:rgb(0%,60.351563%,25.097656%);fill-opacity:1;" d="M 570.574219 25.335938 L 611.15625 25.335938 C 622.957031 25.335938 631.972656 28.429688 638.203125 34.625 C 644.425781 40.816406 647.550781 49.734375 647.550781 61.386719 C 647.550781 68.996094 645.976563 75.261719 642.847656 80.183594 C 639.710938 85.113281 635.480469 87.988281 630.15625 88.816406 L 654.15625 132.183594 L 617.925781 132.183594 L 602.171875 97.035156 L 602.171875 132.183594 L 570.574219 132.183594 L 570.574219 54.386719 L 570.539063 54.34375 L 561.867188 54.34375 L 570.558594 25.335938 Z M 602.171875 52.910156 L 602.171875 73.878906 L 607.21875 73.878906 C 610.285156 73.878906 612.660156 72.988281 614.324219 71.203125 C 615.976563 69.414063 616.816406 66.863281 616.816406 63.539063 C 616.816406 60.121094 615.976563 57.492188 614.324219 55.664063 C 612.660156 53.828125 610.285156 52.910156 607.21875 52.910156 Z M 602.171875 52.910156 "/>
<path style=" stroke:none;fill-rule:evenodd;fill:rgb(0%,60.351563%,25.097656%);fill-opacity:1;" d="M 672.269531 132.183594 L 672.269531 54.34375 L 653.789063 54.34375 L 662.453125 25.335938 L 727.132813 25.335938 L 718.355469 54.34375 L 704.441406 54.34375 L 704.441406 132.183594 Z M 672.269531 132.183594 "/>
<g clip-path="url(#clip1)" clip-rule="nonzero">
<path style=" stroke:none;fill-rule:evenodd;fill:rgb(0%,43.530273%,70.506287%);fill-opacity:1;" d="M 810.332031 80.203125 L 739.003906 160.441406 L 907.511719 80.203125 L 739.003906 -0.0429688 Z M 810.332031 80.203125 "/>
</g>
<path style=" stroke:none;fill-rule:evenodd;fill:rgb(0%,60.351563%,25.097656%);fill-opacity:1;" d="M 763.175781 80.203125 L 742.417969 138.175781 L 793.839844 80.203125 L 742.417969 22.226563 Z M 763.175781 80.203125 "/>
</g>
</svg>
